HIERARCHY
ROOT Hips
{
	OFFSET 0.000000 0.000000 0.000000
	CHANNELS 6 Xposition Yposition Zposition Xrotation Yrotation Zrotation
	JOINT LeftUpLeg_virtual
	{
		OFFSET 0.000000 0.000000 0.000000
		CHANNELS 3 Xrotation Yrotation Zrotation
		JOINT LeftUpLeg
		{
			OFFSET 10.205400 -3.823500 0.155100
			CHANNELS 3 Xrotation Yrotation Zrotation
			JOINT LeftLeg
			{
				OFFSET 0.708757 -12.982077 0.567790
				CHANNELS 3 Xrotation Yrotation Zrotation
				JOINT LeftFoot
				{
					OFFSET -0.708756 -10.717838 -2.184338
					CHANNELS 3 Xrotation Yrotation Zrotation
					JOINT LeftToeBase
					{
						OFFSET 0.108149 -7.191104 7.560241
						CHANNELS 3 Xrotation Yrotation Zrotation
						JOINT LeftToe_End
						{
							OFFSET 0.070230 0.081724 4.490308
							CHANNELS 3 Xrotation Yrotation Zrotation
							End Site
							{
								OFFSET 0 0 0
							}
						}
					}
				}
			}
		}
	}
	JOINT RightUpLeg_virtual
	{
		OFFSET 0.000000 0.000000 0.000000
		CHANNELS 3 Xrotation Yrotation Zrotation
		JOINT RightUpLeg
		{
			OFFSET -10.205400 -3.823500 0.005500
			CHANNELS 3 Xrotation Yrotation Zrotation
			JOINT RightLeg
			{
				OFFSET -0.708756 -12.982134 0.610632
				CHANNELS 3 Xrotation Yrotation Zrotation
				JOINT RightFoot
				{
					OFFSET 0.708754 -10.717769 -1.945823
					CHANNELS 3 Xrotation Yrotation Zrotation
					JOINT RightToeBase
					{
						OFFSET -0.108140 -7.191069 7.372968
						CHANNELS 3 Xrotation Yrotation Zrotation
						JOINT RightToe_End
						{
							OFFSET -0.070227 0.081735 4.479403
							CHANNELS 3 Xrotation Yrotation Zrotation
							End Site
							{
								OFFSET 0 0 0
							}
						}
					}
				}
			}
		}
	}
	JOINT Spine_virtual
	{
		OFFSET 0.000000 0.000000 0.000000
		CHANNELS 3 Xrotation Yrotation Zrotation
		JOINT Spine
		{
			OFFSET 0.000000 6.876099 0.125700
			CHANNELS 3 Xrotation Yrotation Zrotation
			JOINT Spine1
			{
				OFFSET 0.000000 5.730043 0.104720
				CHANNELS 3 Xrotation Yrotation Zrotation
				JOINT Spine1_split
				{
					OFFSET 0.000000 5.730043 0.104720
					CHANNELS 3 Xrotation Yrotation Zrotation
					JOINT Spine2
					{
						OFFSET 0.000000 5.730043 0.104720
						CHANNELS 3 Xrotation Yrotation Zrotation
						JOINT Neck_virtual
						{
							OFFSET 0.000000 0.000000 0.000000
							CHANNELS 3 Xrotation Yrotation Zrotation
							JOINT Neck
							{
								OFFSET 0.000000 10.314075 0.188496
								CHANNELS 3 Xrotation Yrotation Zrotation
								JOINT Head
								{
									OFFSET 0.000000 7.643700 -2.377400
									CHANNELS 3 Xrotation Yrotation Zrotation
									JOINT HeadTop_End
									{
										OFFSET 0.000000 43.788605 -13.619600
										CHANNELS 3 Xrotation Yrotation Zrotation
										End Site
										{
											OFFSET 0 0 0
										}
									}
								}
							}
						}
						JOINT LeftShoulder_virtual
						{
							OFFSET 0.000000 0.000000 0.000000
							CHANNELS 3 Xrotation Yrotation Zrotation
							JOINT LeftShoulder
							{
								OFFSET 2.196100 4.412489 0.087492
								CHANNELS 3 Xrotation Yrotation Zrotation
								JOINT LeftShoulder_split
								{
									OFFSET 2.196100 4.412489 0.087492
									CHANNELS 3 Xrotation Yrotation Zrotation
									JOINT LeftArm
									{
										OFFSET 8.771219 -2.981674 -0.026999
										CHANNELS 3 Xrotation Yrotation Zrotation
										JOINT LeftForeArm
										{
											OFFSET 8.512804 0.000000 -0.000000
											CHANNELS 3 Xrotation Yrotation Zrotation
											JOINT LeftHand
											{
												OFFSET 18.484802 0.000000 -0.000000
												CHANNELS 3 Xrotation Yrotation Zrotation
												End Site
												{
													OFFSET 0 0 0
												}
											}
										}
									}
								}
							}
						}
						JOINT RightShoulder_virtual
						{
							OFFSET 0.000000 0.000000 0.000000
							CHANNELS 3 Xrotation Yrotation Zrotation
							JOINT RightShoulder
							{
								OFFSET -2.196100 4.412496 0.070690
								CHANNELS 3 Xrotation Yrotation Zrotation
								JOINT RightShoulder_split
								{
									OFFSET -2.196100 4.412496 0.070690
									CHANNELS 3 Xrotation Yrotation Zrotation
									JOINT RightArm
									{
										OFFSET -8.771282 -2.981682 -0.094208
										CHANNELS 3 Xrotation Yrotation Zrotation
										JOINT RightForeArm
										{
											OFFSET -8.494598 0.000000 0.000000
											CHANNELS 3 Xrotation Yrotation Zrotation
											JOINT RightHand
											{
												OFFSET -18.483803 0.000000 0.000001
												CHANNELS 3 Xrotation Yrotation Zrotation
												End Site
												{
													OFFSET 0 0 0
												}
											}
										}
									}
								}
							}
						}
					}
				}
			}
		}
	}
}
MOTION
Frames: 5
Frame Time: 0.03333333
0.053779 24.978628 1.820765 0.000000 0.000000 0.000000 -8.130869 -74.566125 -5.863326 -40.308676 8.857033 63.286258 45.640864 -7.145667 -5.078071 3.123761 -2.907585 -36.468675 -2.714437 0.643392 -0.336635 0.000000 0.000000 0.000000 -10.208835 -73.974507 -7.262629 -31.301732 5.323492 -40.239148 66.668780 16.912105 -7.144327 -28.907519 -11.706303 30.630632 2.557144 0.580947 0.248995 0.000000 0.000000 0.000000 -9.978192 -75.145345 -7.532500 5.428624 -1.594107 -1.134438 2.994108 -0.390092 -3.297514 0.175414 -1.589243 0.728079 0.000000 0.000000 0.000000 6.318173 0.109251 -3.074889 -4.154299 21.697016 7.157331 1.276941 22.816308 -10.324822 0.000000 0.000000 0.000000 5.875042 -0.211419 -3.250653 0.733761 -6.033667 -17.269551 0.540475 -0.772784 -1.742328 -44.376296 -24.783061 -6.050216 -7.289507 -28.900996 -5.785476 0.000000 0.000000 0.000000 4.333146 -0.246222 -3.068807 3.790853 17.269630 3.476364 7.450685 4.410122 2.580858 16.737001 73.058176 -5.647912 107.368593 85.413838 -118.269903 0.000000 0.000000 0.000000 
0.046531 25.097469 1.773211 0.000000 0.000000 0.000000 -9.500604 -74.800257 -7.664794 -39.381535 8.563531 63.484860 45.522466 -7.198504 -5.078515 3.113099 -2.515261 -36.317444 -2.671256 0.566369 -0.172602 0.000000 0.000000 0.000000 -11.531002 -74.267946 -8.848676 -31.558609 5.617357 -39.744406 65.064293 17.195867 -6.562543 -28.124658 -11.496604 31.027965 2.182859 0.677256 0.238657 0.000000 0.000000 0.000000 -11.037002 -75.518820 -8.995341 4.873914 -1.498808 -0.985471 2.746047 -0.384141 -3.260857 -0.201475 -1.546348 0.814489 0.000000 0.000000 0.000000 6.072065 0.012431 -2.993885 -3.855100 21.782296 7.124952 1.793630 23.131303 -10.703772 0.000000 0.000000 0.000000 5.507767 -0.217356 -3.168638 0.681913 -5.998000 -17.445773 0.472519 0.331754 -2.625236 -44.421187 -24.667590 -6.567813 -6.966431 -30.391733 -5.307884 0.000000 0.000000 0.000000 4.148230 -0.267181 -3.075609 3.726925 17.157078 3.502899 7.736844 2.607876 2.306511 16.185839 72.431882 -4.186569 90.545823 86.169318 -101.360028 0.000000 0.000000 0.000000 
0.133235 25.332649 1.673679 0.000000 0.000000 0.000000 -12.872139 -75.599962 -11.606466 -37.212558 8.672399 63.574486 44.037365 -6.820699 -5.376116 3.065403 -1.537462 -35.554932 -2.960883 0.394478 0.110103 0.000000 0.000000 0.000000 -14.305788 -75.090171 -12.062040 -32.334167 6.012183 -39.147987 62.677224 17.778871 -5.619489 -25.950288 -10.147973 31.766581 2.543890 0.749257 0.492768 0.000000 0.000000 0.000000 -13.960143 -76.225942 -12.488575 4.341202 -1.014948 -0.464534 2.807510 -0.381380 -3.051780 -0.232939 -1.913187 0.678432 0.000000 0.000000 0.000000 6.100088 -0.072996 -2.796208 -4.003474 21.924993 7.182892 2.356828 24.054494 -11.124082 0.000000 0.000000 0.000000 5.324212 -0.243445 -2.929579 0.364586 -6.222254 -17.870270 -0.235875 1.144681 -2.970131 -42.010028 -23.463150 -7.664323 -6.471745 -32.467513 -5.023380 0.000000 0.000000 0.000000 4.163076 -0.259372 -2.892297 3.623434 16.380040 3.992449 6.757154 1.864720 1.977638 14.865029 69.824867 -0.814986 50.469395 85.866440 -60.908328 0.000000 0.000000 0.000000 
0.260788 25.643694 1.573861 0.000000 0.000000 0.000000 -18.192583 -76.780069 -17.466484 -34.208948 9.113586 63.528191 41.867308 -6.083413 -5.950220 3.110102 -0.310164 -34.377961 -3.480264 0.158150 0.438270 0.000000 0.000000 0.000000 -18.089794 -75.871831 -16.340551 -33.166811 6.399703 -38.481088 60.234195 18.219200 -4.511868 -23.138424 -8.248449 32.531576 3.416133 0.797824 1.003515 0.000000 0.000000 0.000000 -18.106148 -76.731137 -17.190239 4.001505 -0.263060 0.284259 3.129123 -0.407510 -2.694918 0.162307 -2.511404 0.833938 0.000000 0.000000 0.000000 6.223277 -0.152001 -2.529788 -4.507740 22.031622 7.299249 2.971582 25.465489 -11.566528 0.000000 0.000000 0.000000 5.384585 -0.308961 -2.604927 -0.095167 -6.888298 -18.652104 -0.888850 1.553208 -2.891220 -36.967689 -21.817071 -9.371662 -5.826164 -35.824581 -4.873632 0.000000 0.000000 0.000000 4.368645 -0.235297 -2.570862 3.540724 15.193802 4.909573 5.010390 2.236200 1.588271 13.445489 65.704623 3.866117 23.341680 83.654306 -33.045353 0.000000 0.000000 0.000000 
0.388772 25.990995 1.534440 0.000000 0.000000 0.000000 -24.210866 -77.767277 -23.830909 -30.865300 9.668808 63.318135 39.808771 -5.173076 -6.697498 3.221443 0.760727 -33.184648 -4.066967 -0.089502 0.818887 0.000000 0.000000 0.000000 -21.423310 -75.945584 -20.051397 -33.352828 6.530081 -37.735057 57.915565 17.988116 -3.575721 -20.392353 -6.707354 33.056148 3.708809 0.790910 1.638784 0.000000 0.000000 0.000000 -22.478276 -76.785629 -21.912329 3.986833 0.532187 1.068046 3.568725 -0.500930 -2.225926 0.442292 -2.868868 1.292352 0.000000 0.000000 0.000000 6.271323 -0.261267 -2.218465 -5.160157 22.144069 7.442066 3.648842 27.012474 -11.960249 0.000000 0.000000 0.000000 5.650182 -0.452994 -2.252354 -0.608095 -8.025126 -19.764880 -0.579622 1.635094 -2.592041 -29.160799 -20.556508 -11.267379 -5.000122 -41.138137 -4.652111 0.000000 0.000000 0.000000 4.685958 -0.235771 -2.150392 3.415576 13.718169 6.282078 3.133471 3.242633 1.161025 12.415295 60.772387 8.918981 11.164284 80.266553 -19.762727 0.000000 0.000000 0.000000 
